{
    "accessors": [
        {
            "bufferView": 3,
            "byteOffset": 0,
            "componentType": 5123,
            "count": 6828,
            "max": [
                2293
            ],
            "min": [
                0
            ],
            "name": "accessor_buffer_Untitled.13239_0",
            "type": "SCALAR"
        },
        {
            "bufferView": 12,
            "byteOffset": 0,
            "componentType": 5126,
            "count": 14099,
            "max": [
                0.6524837017059326,
                0.6809603571891785,
                0.3338962495326996
            ],
            "min": [
                -0.8169761896133423,
                0.011002566665410995,
                -0.33665594458580017
            ],
            "name": "accessor_buffer_Untitled.13240_POSITION_0",
            "type": "VEC3"
        },
        {
            "bufferView": 15,
            "byteOffset": 0,
            "componentType": 5123,
            "count": 43920,
            "max": [
                14098
            ],
            "min": [
                0
            ],
            "name": "accessor_buffer_Untitled.13240_0",
            "type": "SCALAR"
        },
        {
            "bufferView": 11,
            "byteOffset": 0,
            "componentType": 5123,
            "count": 4260,
            "max": [
                1353
            ],
            "min": [
                0
            ],
            "name": "accessor_buffer_Untitled.13241_0",
            "type": "SCALAR"
        },
        {
            "bufferView": 4,
            "byteOffset": 0,
            "componentType": 5126,
            "count": 1332,
            "max": [
                -0.04255640506744385,
                0.39572009444236755,
                0.04917864501476288
            ],
            "min": [
                -0.5775964260101318,
                0.2957199811935425,
                -0.0508214496076107
            ],
            "name": "accessor_buffer_Untitled.13242_POSITION_0",
            "type": "VEC3"
        },
        {
            "bufferView": 18,
            "byteOffset": 0,
            "componentType": 5126,
            "count": 11458,
            "max": [
                138.91217041015625,
                1.0
            ],
            "min": [
                -137.83364868164062,
                -169.15542602539062
            ],
            "name": "accessor_buffer_Untitled.13238_TEXCOORD_0_0",
            "type": "VEC2"
        },
        {
            "bufferView": 1,
            "byteOffset": 0,
            "componentType": 5126,
            "count": 2294,
            "max": [
                1.0,
                0.999998152256012,
                0.9999949932098389
            ],
            "min": [
                -1.0,
                -0.9999983906745911,
                -0.9999949932098389
            ],
            "name": "accessor_buffer_Untitled.13239_NORMAL_0",
            "type": "VEC3"
        },
        {
            "bufferView": 6,
            "byteOffset": 0,
            "componentType": 5126,
            "count": 1332,
            "max": [
                0.0,
                1.0
            ],
            "min": [
                0.0,
                1.0
            ],
            "name": "accessor_buffer_Untitled.13242_TEXCOORD_0_0",
            "type": "VEC2"
        },
        {
            "bufferView": 14,
            "byteOffset": 0,
            "componentType": 5126,
            "count": 14099,
            "max": [
                0.0,
                1.0
            ],
            "min": [
                0.0,
                1.0
            ],
            "name": "accessor_buffer_Untitled.13240_TEXCOORD_0_0",
            "type": "VEC2"
        },
        {
            "bufferView": 10,
            "byteOffset": 0,
            "componentType": 5126,
            "count": 1354,
            "max": [
                0.0,
                1.0
            ],
            "min": [
                0.0,
                1.0
            ],
            "name": "accessor_buffer_Untitled.13241_TEXCOORD_0_0",
            "type": "VEC2"
        },
        {
            "bufferView": 9,
            "byteOffset": 0,
            "componentType": 5126,
            "count": 1354,
            "max": [
                1.0,
                1.0,
                1.0
            ],
            "min": [
                -1.0,
                -1.0,
                -1.0
            ],
            "name": "accessor_buffer_Untitled.13241_NORMAL_0",
            "type": "VEC3"
        },
        {
            "bufferView": 16,
            "byteOffset": 0,
            "componentType": 5126,
            "count": 11458,
            "max": [
                0.630218505859375,
                0.8359173536300659,
                1.1733813285827637
            ],
            "min": [
                -0.7845472693443298,
                0.0999719500541687,
                -0.24799354374408722
            ],
            "name": "accessor_buffer_Untitled.13238_POSITION_0",
            "type": "VEC3"
        },
        {
            "bufferView": 2,
            "byteOffset": 0,
            "componentType": 5126,
            "count": 2294,
            "max": [
                0.0,
                1.0
            ],
            "min": [
                0.0,
                1.0
            ],
            "name": "accessor_buffer_Untitled.13239_TEXCOORD_0_0",
            "type": "VEC2"
        },
        {
            "bufferView": 13,
            "byteOffset": 0,
            "componentType": 5126,
            "count": 14099,
            "max": [
                1.0,
                1.0000001192092896,
                1.0
            ],
            "min": [
                -1.0,
                -1.0,
                -1.0
            ],
            "name": "accessor_buffer_Untitled.13240_NORMAL_0",
            "type": "VEC3"
        },
        {
            "bufferView": 5,
            "byteOffset": 0,
            "componentType": 5126,
            "count": 1332,
            "max": [
                1.0,
                1.0,
                1.0
            ],
            "min": [
                -1.0,
                -1.0,
                -1.0
            ],
            "name": "accessor_buffer_Untitled.13242_NORMAL_0",
            "type": "VEC3"
        },
        {
            "bufferView": 19,
            "byteOffset": 0,
            "componentType": 5123,
            "count": 30924,
            "max": [
                11457
            ],
            "min": [
                0
            ],
            "name": "accessor_buffer_Untitled.13238_0",
            "type": "SCALAR"
        },
        {
            "bufferView": 0,
            "byteOffset": 0,
            "componentType": 5126,
            "count": 2294,
            "max": [
                0.042443521320819855,
                1.282387137413025,
                2.1667897701263428
            ],
            "min": [
                -0.05755697935819626,
                0.38182756304740906,
                0.17235279083251953
            ],
            "name": "accessor_buffer_Untitled.13239_POSITION_0",
            "type": "VEC3"
        },
        {
            "bufferView": 17,
            "byteOffset": 0,
            "componentType": 5126,
            "count": 11458,
            "max": [
                1.0,
                0.9999791979789734,
                0.9999377727508545
            ],
            "min": [
                -1.0,
                -1.0,
                -1.0
            ],
            "name": "accessor_buffer_Untitled.13238_NORMAL_0",
            "type": "VEC3"
        },
        {
            "bufferView": 8,
            "byteOffset": 0,
            "componentType": 5126,
            "count": 1354,
            "max": [
                0.5624836683273315,
                0.39564579725265503,
                0.04910434037446976
            ],
            "min": [
                0.027443572878837585,
                0.2957945764064789,
                -0.050746846944093704
            ],
            "name": "accessor_buffer_Untitled.13241_POSITION_0",
            "type": "VEC3"
        },
        {
            "bufferView": 7,
            "byteOffset": 0,
            "componentType": 5123,
            "count": 3972,
            "max": [
                1331
            ],
            "min": [
                0
            ],
            "name": "accessor_buffer_Untitled.13242_0",
            "type": "SCALAR"
        }
    ],
    "asset": {
        "copyright": "",
        "generator": "blendergltf v1.2.0",
        "version": "2.0"
    },
    "bufferViews": [
        {
            "buffer": 0,
            "byteLength": 27528,
            "byteOffset": 0,
            "byteStride": 12,
            "name": "bufferView_buffer_Untitled.13239_POSITION_0",
            "target": 34962
        },
        {
            "buffer": 0,
            "byteLength": 27528,
            "byteOffset": 27528,
            "byteStride": 12,
            "name": "bufferView_buffer_Untitled.13239_NORMAL_0",
            "target": 34962
        },
        {
            "buffer": 0,
            "byteLength": 18352,
            "byteOffset": 55056,
            "byteStride": 8,
            "name": "bufferView_buffer_Untitled.13239_TEXCOORD_0_0",
            "target": 34962
        },
        {
            "buffer": 0,
            "byteLength": 13660,
            "byteOffset": 73408,
            "name": "bufferView_buffer_Untitled.13239_0",
            "target": 34963
        },
        {
            "buffer": 0,
            "byteLength": 15984,
            "byteOffset": 87068,
            "byteStride": 12,
            "name": "bufferView_buffer_Untitled.13242_POSITION_0",
            "target": 34962
        },
        {
            "buffer": 0,
            "byteLength": 15984,
            "byteOffset": 103052,
            "byteStride": 12,
            "name": "bufferView_buffer_Untitled.13242_NORMAL_0",
            "target": 34962
        },
        {
            "buffer": 0,
            "byteLength": 10656,
            "byteOffset": 119036,
            "byteStride": 8,
            "name": "bufferView_buffer_Untitled.13242_TEXCOORD_0_0",
            "target": 34962
        },
        {
            "buffer": 0,
            "byteLength": 7948,
            "byteOffset": 129692,
            "name": "bufferView_buffer_Untitled.13242_0",
            "target": 34963
        },
        {
            "buffer": 0,
            "byteLength": 16248,
            "byteOffset": 137640,
            "byteStride": 12,
            "name": "bufferView_buffer_Untitled.13241_POSITION_0",
            "target": 34962
        },
        {
            "buffer": 0,
            "byteLength": 16248,
            "byteOffset": 153888,
            "byteStride": 12,
            "name": "bufferView_buffer_Untitled.13241_NORMAL_0",
            "target": 34962
        },
        {
            "buffer": 0,
            "byteLength": 10832,
            "byteOffset": 170136,
            "byteStride": 8,
            "name": "bufferView_buffer_Untitled.13241_TEXCOORD_0_0",
            "target": 34962
        },
        {
            "buffer": 0,
            "byteLength": 8524,
            "byteOffset": 180968,
            "name": "bufferView_buffer_Untitled.13241_0",
            "target": 34963
        },
        {
            "buffer": 0,
            "byteLength": 169188,
            "byteOffset": 189492,
            "byteStride": 12,
            "name": "bufferView_buffer_Untitled.13240_POSITION_0",
            "target": 34962
        },
        {
            "buffer": 0,
            "byteLength": 169188,
            "byteOffset": 358680,
            "byteStride": 12,
            "name": "bufferView_buffer_Untitled.13240_NORMAL_0",
            "target": 34962
        },
        {
            "buffer": 0,
            "byteLength": 112792,
            "byteOffset": 527868,
            "byteStride": 8,
            "name": "bufferView_buffer_Untitled.13240_TEXCOORD_0_0",
            "target": 34962
        },
        {
            "buffer": 0,
            "byteLength": 87844,
            "byteOffset": 640660,
            "name": "bufferView_buffer_Untitled.13240_0",
            "target": 34963
        },
        {
            "buffer": 0,
            "byteLength": 137496,
            "byteOffset": 728504,
            "byteStride": 12,
            "name": "bufferView_buffer_Untitled.13238_POSITION_0",
            "target": 34962
        },
        {
            "buffer": 0,
            "byteLength": 137496,
            "byteOffset": 866000,
            "byteStride": 12,
            "name": "bufferView_buffer_Untitled.13238_NORMAL_0",
            "target": 34962
        },
        {
            "buffer": 0,
            "byteLength": 91664,
            "byteOffset": 1003496,
            "byteStride": 8,
            "name": "bufferView_buffer_Untitled.13238_TEXCOORD_0_0",
            "target": 34962
        },
        {
            "buffer": 0,
            "byteLength": 61852,
            "byteOffset": 1095160,
            "name": "bufferView_buffer_Untitled.13238_0",
            "target": 34963
        }
    ],
    "buffers": [
        {
            "byteLength": 1157012,
            "name": "buffer_K2_L3",
            "uri": "data:application/octet-stream;base64,"
        }
    ],
    "materials": [
        {
            "alphaMode": "OPAQUE",
            "doubleSided": false,
            "emissiveFactor": [
                0.0,
                0.0,
                0.0
            ],
            "name": "Blue",
            "pbrMetallicRoughness": {
                "baseColorFactor": [
                    0.007416173815727234,
                    0.013087029568850994,
                    0.26109975576400757,
                    1.0
                ],
                "metallicFactor": 0.0,
                "roughnessFactor": 1.0
            }
        },
        {
            "alphaMode": "OPAQUE",
            "doubleSided": false,
            "emissiveFactor": [
                0.0,
                0.0,
                0.0
            ],
            "name": "Green",
            "pbrMetallicRoughness": {
                "baseColorFactor": [
                    0.006584842689335346,
                    0.28707125782966614,
                    0.0,
                    1.0
                ],
                "metallicFactor": 0.0,
                "roughnessFactor": 1.0
            }
        },
        {
            "alphaMode": "OPAQUE",
            "doubleSided": false,
            "emissiveFactor": [
                0.0,
                0.0,
                0.0
            ],
            "name": "LightBlue",
            "pbrMetallicRoughness": {
                "baseColorFactor": [
                    0.07983715832233429,
                    0.16006270051002502,
                    0.800000011920929,
                    1.0
                ],
                "metallicFactor": 0.0,
                "roughnessFactor": 1.0
            }
        },
        {
            "alphaMode": "OPAQUE",
            "doubleSided": false,
            "emissiveFactor": [
                0.0,
                0.0,
                0.0
            ],
            "name": "White",
            "pbrMetallicRoughness": {
                "baseColorFactor": [
                    0.800000011920929,
                    0.800000011920929,
                    0.800000011920929,
                    1.0
                ],
                "metallicFactor": 0.0,
                "roughnessFactor": 1.0
            }
        }
    ],
    "meshes": [
        {
            "name": "Untitled.13239",
            "primitives": [
                {
                    "attributes": {
                        "NORMAL": 6,
                        "POSITION": 16,
                        "TEXCOORD_0": 12
                    },
                    "indices": 0,
                    "material": 1,
                    "mode": 4
                }
            ]
        },
        {
            "name": "Untitled.13242",
            "primitives": [
                {
                    "attributes": {
                        "NORMAL": 14,
                        "POSITION": 4,
                        "TEXCOORD_0": 7
                    },
                    "indices": 19,
                    "material": 3,
                    "mode": 4
                }
            ]
        },
        {
            "name": "Untitled.13241",
            "primitives": [
                {
                    "attributes": {
                        "NORMAL": 10,
                        "POSITION": 18,
                        "TEXCOORD_0": 9
                    },
                    "indices": 3,
                    "material": 3,
                    "mode": 4
                }
            ]
        },
        {
            "name": "Untitled.13240",
            "primitives": [
                {
                    "attributes": {
                        "NORMAL": 13,
                        "POSITION": 1,
                        "TEXCOORD_0": 8
                    },
                    "indices": 2,
                    "material": 0,
                    "mode": 4
                }
            ]
        },
        {
            "name": "Untitled.13238",
            "primitives": [
                {
                    "attributes": {
                        "NORMAL": 17,
                        "POSITION": 11,
                        "TEXCOORD_0": 5
                    },
                    "indices": 15,
                    "material": 2,
                    "mode": 4
                }
            ]
        }
    ],
    "nodes": [
        {
            "extras": {
                "currentUVSet": "map1"
            },
            "mesh": 4,
            "name": "K2_L03",
            "rotation": [
                0.0,
                0.0,
                0.0,
                1.0
            ],
            "scale": [
                1.0,
                1.0,
                1.0
            ],
            "translation": [
                0.0,
                0.0,
                0.0
            ]
        },
        {
            "extras": {
                "currentUVSet": "map1"
            },
            "mesh": 0,
            "name": "K2_L03.001",
            "rotation": [
                0.0,
                0.0,
                0.0,
                1.0
            ],
            "scale": [
                1.0,
                1.0,
                1.0
            ],
            "translation": [
                0.0,
                0.0,
                0.0
            ]
        },
        {
            "extras": {
                "currentUVSet": "map1"
            },
            "mesh": 3,
            "name": "K2_L03.002",
            "rotation": [
                0.0,
                0.0,
                0.0,
                1.0
            ],
            "scale": [
                1.0,
                1.0,
                1.0
            ],
            "translation": [
                0.0,
                0.0,
                0.0
            ]
        },
        {
            "extras": {
                "currentUVSet": "map1"
            },
            "mesh": 2,
            "name": "K2_L03.003",
            "rotation": [
                0.0,
                0.0,
                0.0,
                1.0
            ],
            "scale": [
                1.0,
                1.0,
                1.0
            ],
            "translation": [
                0.0,
                0.0,
                0.0
            ]
        },
        {
            "extras": {
                "currentUVSet": "map1"
            },
            "mesh": 1,
            "name": "K2_L03.004",
            "rotation": [
                0.0,
                0.0,
                0.0,
                1.0
            ],
            "scale": [
                1.0,
                1.0,
                1.0
            ],
            "translation": [
                0.0,
                0.0,
                0.0
            ]
        }
    ],
    "scene": 0,
    "scenes": [
        {
            "extras": {
                "background_color": [
                    0.05087608844041824,
                    0.05087608844041824,
                    0.05087608844041824
                ],
                "frames_per_second": 24
            },
            "name": "Scene",
            "nodes": [
                4,
                3,
                2,
                1,
                0
            ]
        }
    ]
}
