{
    "accessors": [
        {
            "bufferView": 11,
            "byteOffset": 0,
            "componentType": 5126,
            "count": 2448,
            "max": [
                0.9999992251396179,
                0.9999995231628418,
                0.9999993443489075
            ],
            "min": [
                -0.9999993443489075,
                -0.9999995231628418,
                -0.9999988675117493
            ],
            "name": "accessor_buffer_Untitled.020_NORMAL_0",
            "type": "VEC3"
        },
        {
            "bufferView": 0,
            "byteOffset": 0,
            "componentType": 5126,
            "count": 3714,
            "max": [
                0.7187201380729675,
                0.14789700508117676,
                0.040359802544116974
            ],
            "min": [
                -0.6913522481918335,
                0.04779079928994179,
                -0.061328303068876266
            ],
            "name": "accessor_buffer_Untitled.015_POSITION_0",
            "type": "VEC3"
        },
        {
            "bufferView": 2,
            "byteOffset": 0,
            "componentType": 5126,
            "count": 3714,
            "max": [
                140.0911865234375,
                0.6527175903320312
            ],
            "min": [
                -139.1016845703125,
                -16.2088623046875
            ],
            "name": "accessor_buffer_Untitled.015_TEXCOORD_0_0",
            "type": "VEC2"
        },
        {
            "bufferView": 6,
            "byteOffset": 0,
            "componentType": 5123,
            "count": 7176,
            "max": [
                2447
            ],
            "min": [
                0
            ],
            "name": "accessor_buffer_Untitled.017_0",
            "type": "SCALAR"
        },
        {
            "bufferView": 1,
            "byteOffset": 0,
            "componentType": 5126,
            "count": 3714,
            "max": [
                0.999999463558197,
                0.9999997019767761,
                0.9999988079071045
            ],
            "min": [
                -0.9999993443489075,
                -0.9999996423721313,
                -0.9999988675117493
            ],
            "name": "accessor_buffer_Untitled.015_NORMAL_0",
            "type": "VEC3"
        },
        {
            "bufferView": 5,
            "byteOffset": 0,
            "componentType": 5126,
            "count": 2448,
            "max": [
                0.9999992847442627,
                0.9999995231628418,
                0.9999988675117493
            ],
            "min": [
                -0.9999992847442627,
                -0.9999995231628418,
                -0.9999988675117493
            ],
            "name": "accessor_buffer_Untitled.017_NORMAL_0",
            "type": "VEC3"
        },
        {
            "bufferView": 12,
            "byteOffset": 0,
            "componentType": 5123,
            "count": 7176,
            "max": [
                2447
            ],
            "min": [
                0
            ],
            "name": "accessor_buffer_Untitled.020_0",
            "type": "SCALAR"
        },
        {
            "bufferView": 18,
            "byteOffset": 0,
            "componentType": 5126,
            "count": 4856,
            "max": [
                58.470062255859375,
                0.9930095672607422
            ],
            "min": [
                -57.58524703979492,
                -45.84086608886719
            ],
            "name": "accessor_buffer_Untitled.023_TEXCOORD_0_0",
            "type": "VEC2"
        },
        {
            "bufferView": 17,
            "byteOffset": 0,
            "componentType": 5126,
            "count": 4856,
            "max": [
                0.9999993443489075,
                0.9999995827674866,
                0.999998927116394
            ],
            "min": [
                -0.9999993443489075,
                -0.9999996423721313,
                -0.9999988675117493
            ],
            "name": "accessor_buffer_Untitled.023_NORMAL_0",
            "type": "VEC3"
        },
        {
            "bufferView": 14,
            "byteOffset": 0,
            "componentType": 5126,
            "count": 2622,
            "max": [
                0.9999993443489075,
                0.9999995827674866,
                0.9999996423721313
            ],
            "min": [
                -0.9999993443489075,
                -0.9999995231628418,
                -0.999998927116394
            ],
            "name": "accessor_buffer_Untitled.022_NORMAL_0",
            "type": "VEC3"
        },
        {
            "bufferView": 10,
            "byteOffset": 0,
            "componentType": 5126,
            "count": 2448,
            "max": [
                -0.0865357369184494,
                0.894720733165741,
                0.04010605812072754
            ],
            "min": [
                -0.774082601070404,
                0.207087442278862,
                -0.06125567480921745
            ],
            "name": "accessor_buffer_Untitled.020_POSITION_0",
            "type": "VEC3"
        },
        {
            "bufferView": 15,
            "byteOffset": 0,
            "componentType": 5123,
            "count": 7950,
            "max": [
                2621
            ],
            "min": [
                0
            ],
            "name": "accessor_buffer_Untitled.022_0",
            "type": "SCALAR"
        },
        {
            "bufferView": 8,
            "byteOffset": 0,
            "componentType": 5126,
            "count": 2622,
            "max": [
                0.9999994039535522,
                0.9999996423721313,
                0.9999991655349731
            ],
            "min": [
                -0.9999993443489075,
                -0.999999463558197,
                -0.999999463558197
            ],
            "name": "accessor_buffer_Untitled.019_NORMAL_0",
            "type": "VEC3"
        },
        {
            "bufferView": 9,
            "byteOffset": 0,
            "componentType": 5123,
            "count": 7950,
            "max": [
                2621
            ],
            "min": [
                0
            ],
            "name": "accessor_buffer_Untitled.019_0",
            "type": "SCALAR"
        },
        {
            "bufferView": 4,
            "byteOffset": 0,
            "componentType": 5126,
            "count": 2448,
            "max": [
                0.7833930253982544,
                0.8896283507347107,
                0.040554698556661606
            ],
            "min": [
                0.09575916081666946,
                0.2020806074142456,
                -0.05958254635334015
            ],
            "name": "accessor_buffer_Untitled.017_POSITION_0",
            "type": "VEC3"
        },
        {
            "bufferView": 16,
            "byteOffset": 0,
            "componentType": 5126,
            "count": 4856,
            "max": [
                0.2951662838459015,
                1.135225772857666,
                0.06549835205078125
            ],
            "min": [
                -0.2910620868206024,
                0.6732771396636963,
                -0.08472079783678055
            ],
            "name": "accessor_buffer_Untitled.023_POSITION_0",
            "type": "VEC3"
        },
        {
            "bufferView": 7,
            "byteOffset": 0,
            "componentType": 5126,
            "count": 2622,
            "max": [
                0.9809097647666931,
                0.3866468369960785,
                0.16568253934383392
            ],
            "min": [
                0.5505799651145935,
                0.0037788653280586004,
                -0.18450689315795898
            ],
            "name": "accessor_buffer_Untitled.019_POSITION_0",
            "type": "VEC3"
        },
        {
            "bufferView": 19,
            "byteOffset": 0,
            "componentType": 5123,
            "count": 8316,
            "max": [
                4855
            ],
            "min": [
                0
            ],
            "name": "accessor_buffer_Untitled.023_0",
            "type": "SCALAR"
        },
        {
            "bufferView": 3,
            "byteOffset": 0,
            "componentType": 5123,
            "count": 7056,
            "max": [
                3713
            ],
            "min": [
                0
            ],
            "name": "accessor_buffer_Untitled.015_0",
            "type": "SCALAR"
        },
        {
            "bufferView": 13,
            "byteOffset": 0,
            "componentType": 5126,
            "count": 2622,
            "max": [
                -0.5412420630455017,
                0.3916533589363098,
                0.16351094841957092
            ],
            "min": [
                -0.9715718626976013,
                0.008808312006294727,
                -0.18667806684970856
            ],
            "name": "accessor_buffer_Untitled.022_POSITION_0",
            "type": "VEC3"
        }
    ],
    "asset": {
        "copyright": "",
        "generator": "blendergltf v1.2.0",
        "version": "2.0"
    },
    "bufferViews": [
        {
            "buffer": 0,
            "byteLength": 44568,
            "byteOffset": 0,
            "byteStride": 12,
            "name": "bufferView_buffer_Untitled.015_POSITION_0",
            "target": 34962
        },
        {
            "buffer": 0,
            "byteLength": 44568,
            "byteOffset": 44568,
            "byteStride": 12,
            "name": "bufferView_buffer_Untitled.015_NORMAL_0",
            "target": 34962
        },
        {
            "buffer": 0,
            "byteLength": 29712,
            "byteOffset": 89136,
            "byteStride": 8,
            "name": "bufferView_buffer_Untitled.015_TEXCOORD_0_0",
            "target": 34962
        },
        {
            "buffer": 0,
            "byteLength": 14116,
            "byteOffset": 118848,
            "name": "bufferView_buffer_Untitled.015_0",
            "target": 34963
        },
        {
            "buffer": 0,
            "byteLength": 29376,
            "byteOffset": 132964,
            "byteStride": 12,
            "name": "bufferView_buffer_Untitled.017_POSITION_0",
            "target": 34962
        },
        {
            "buffer": 0,
            "byteLength": 29376,
            "byteOffset": 162340,
            "byteStride": 12,
            "name": "bufferView_buffer_Untitled.017_NORMAL_0",
            "target": 34962
        },
        {
            "buffer": 0,
            "byteLength": 14356,
            "byteOffset": 191716,
            "name": "bufferView_buffer_Untitled.017_0",
            "target": 34963
        },
        {
            "buffer": 0,
            "byteLength": 31464,
            "byteOffset": 206072,
            "byteStride": 12,
            "name": "bufferView_buffer_Untitled.019_POSITION_0",
            "target": 34962
        },
        {
            "buffer": 0,
            "byteLength": 31464,
            "byteOffset": 237536,
            "byteStride": 12,
            "name": "bufferView_buffer_Untitled.019_NORMAL_0",
            "target": 34962
        },
        {
            "buffer": 0,
            "byteLength": 15904,
            "byteOffset": 269000,
            "name": "bufferView_buffer_Untitled.019_0",
            "target": 34963
        },
        {
            "buffer": 0,
            "byteLength": 29376,
            "byteOffset": 284904,
            "byteStride": 12,
            "name": "bufferView_buffer_Untitled.020_POSITION_0",
            "target": 34962
        },
        {
            "buffer": 0,
            "byteLength": 29376,
            "byteOffset": 314280,
            "byteStride": 12,
            "name": "bufferView_buffer_Untitled.020_NORMAL_0",
            "target": 34962
        },
        {
            "buffer": 0,
            "byteLength": 14356,
            "byteOffset": 343656,
            "name": "bufferView_buffer_Untitled.020_0",
            "target": 34963
        },
        {
            "buffer": 0,
            "byteLength": 31464,
            "byteOffset": 358012,
            "byteStride": 12,
            "name": "bufferView_buffer_Untitled.022_POSITION_0",
            "target": 34962
        },
        {
            "buffer": 0,
            "byteLength": 31464,
            "byteOffset": 389476,
            "byteStride": 12,
            "name": "bufferView_buffer_Untitled.022_NORMAL_0",
            "target": 34962
        },
        {
            "buffer": 0,
            "byteLength": 15904,
            "byteOffset": 420940,
            "name": "bufferView_buffer_Untitled.022_0",
            "target": 34963
        },
        {
            "buffer": 0,
            "byteLength": 58272,
            "byteOffset": 436844,
            "byteStride": 12,
            "name": "bufferView_buffer_Untitled.023_POSITION_0",
            "target": 34962
        },
        {
            "buffer": 0,
            "byteLength": 58272,
            "byteOffset": 495116,
            "byteStride": 12,
            "name": "bufferView_buffer_Untitled.023_NORMAL_0",
            "target": 34962
        },
        {
            "buffer": 0,
            "byteLength": 38848,
            "byteOffset": 553388,
            "byteStride": 8,
            "name": "bufferView_buffer_Untitled.023_TEXCOORD_0_0",
            "target": 34962
        },
        {
            "buffer": 0,
            "byteLength": 16636,
            "byteOffset": 592236,
            "name": "bufferView_buffer_Untitled.023_0",
            "target": 34963
        }
    ],
    "buffers": [
        {
            "byteLength": 608872,
            "name": "buffer_K2_L01_2",
            "uri": "data:application/octet-stream;base64,"
        }
    ],
    "materials": [
        {
            "alphaMode": "OPAQUE",
            "doubleSided": false,
            "emissiveFactor": [
                0.0,
                0.0,
                0.0
            ],
            "name": "Orange",
            "pbrMetallicRoughness": {
                "baseColorFactor": [
                    0.64000004529953,
                    0.10965348780155182,
                    0.0050848196260631084,
                    1.0
                ],
                "metallicFactor": 0.0,
                "roughnessFactor": 1.0
            }
        },
        {
            "alphaMode": "OPAQUE",
            "doubleSided": false,
            "emissiveFactor": [
                0.0,
                0.0,
                0.0
            ],
            "name": "Purple",
            "pbrMetallicRoughness": {
                "baseColorFactor": [
                    0.3999999463558197,
                    0.026965005323290825,
                    0.33797189593315125,
                    1.0
                ],
                "metallicFactor": 0.0,
                "roughnessFactor": 1.0
            }
        },
        {
            "alphaMode": "OPAQUE",
            "doubleSided": false,
            "emissiveFactor": [
                0.0,
                0.0,
                0.0
            ],
            "name": "Yellow",
            "pbrMetallicRoughness": {
                "baseColorFactor": [
                    0.9600000381469727,
                    0.8358908295631409,
                    0.002862143563106656,
                    1.0
                ],
                "metallicFactor": 0.0,
                "roughnessFactor": 1.0
            }
        }
    ],
    "meshes": [
        {
            "name": "Untitled.015",
            "primitives": [
                {
                    "attributes": {
                        "NORMAL": 4,
                        "POSITION": 1,
                        "TEXCOORD_0": 2
                    },
                    "indices": 18,
                    "material": 0,
                    "mode": 4
                }
            ]
        },
        {
            "name": "Untitled.017",
            "primitives": [
                {
                    "attributes": {
                        "NORMAL": 5,
                        "POSITION": 14
                    },
                    "indices": 3,
                    "material": 2,
                    "mode": 4
                }
            ]
        },
        {
            "name": "Untitled.019",
            "primitives": [
                {
                    "attributes": {
                        "NORMAL": 12,
                        "POSITION": 16
                    },
                    "indices": 13,
                    "material": 1,
                    "mode": 4
                }
            ]
        },
        {
            "name": "Untitled.020",
            "primitives": [
                {
                    "attributes": {
                        "NORMAL": 0,
                        "POSITION": 10
                    },
                    "indices": 6,
                    "material": 2,
                    "mode": 4
                }
            ]
        },
        {
            "name": "Untitled.022",
            "primitives": [
                {
                    "attributes": {
                        "NORMAL": 9,
                        "POSITION": 19
                    },
                    "indices": 11,
                    "material": 1,
                    "mode": 4
                }
            ]
        },
        {
            "name": "Untitled.023",
            "primitives": [
                {
                    "attributes": {
                        "NORMAL": 8,
                        "POSITION": 15,
                        "TEXCOORD_0": 7
                    },
                    "indices": 17,
                    "material": 0,
                    "mode": 4
                }
            ]
        }
    ],
    "nodes": [
        {
            "extras": {
                "currentUVSet": "DiffuseUV"
            },
            "mesh": 0,
            "name": "transform1.002",
            "rotation": [
                0.0,
                0.0,
                0.0,
                1.0
            ],
            "scale": [
                1.0,
                1.0,
                1.0
            ],
            "translation": [
                0.0,
                0.0,
                0.0
            ]
        },
        {
            "extras": {
                "currentUVSet": "map1"
            },
            "mesh": 1,
            "name": "Untitled.057",
            "rotation": [
                0.0,
                0.0,
                0.0,
                1.0
            ],
            "scale": [
                1.0,
                1.0,
                1.0
            ],
            "translation": [
                0.0,
                0.0,
                0.0
            ]
        },
        {
            "extras": {
                "currentUVSet": "map1"
            },
            "mesh": 3,
            "name": "Untitled.058",
            "rotation": [
                0.0,
                0.0,
                0.0,
                1.0
            ],
            "scale": [
                1.0,
                1.0,
                1.0
            ],
            "translation": [
                0.0,
                0.0,
                0.0
            ]
        },
        {
            "extras": {
                "currentUVSet": "map1"
            },
            "mesh": 4,
            "name": "Untitled.059",
            "rotation": [
                0.0,
                0.0,
                0.0,
                1.0
            ],
            "scale": [
                1.0,
                1.0,
                1.0
            ],
            "translation": [
                0.0,
                0.0,
                0.0
            ]
        },
        {
            "extras": {
                "currentUVSet": "DiffuseUV"
            },
            "mesh": 5,
            "name": "Untitled.060",
            "rotation": [
                0.0,
                0.0,
                0.0,
                1.0
            ],
            "scale": [
                1.0,
                1.0,
                1.0
            ],
            "translation": [
                0.0,
                0.0,
                0.0
            ]
        },
        {
            "extras": {
                "currentUVSet": "map1"
            },
            "mesh": 2,
            "name": "Untitled.061",
            "rotation": [
                0.0,
                0.0,
                0.0,
                1.0
            ],
            "scale": [
                1.0,
                1.0,
                1.0
            ],
            "translation": [
                0.0,
                0.0,
                0.0
            ]
        }
    ],
    "scene": 0,
    "scenes": [
        {
            "extras": {
                "background_color": [
                    0.05087608844041824,
                    0.05087608844041824,
                    0.05087608844041824
                ],
                "frames_per_second": 24
            },
            "name": "Scene",
            "nodes": [
                5,
                4,
                3,
                2,
                1,
                0
            ]
        }
    ]
}
